<mxfile host="Electron" modified="2023-11-29T13:40:24.457Z" agent="Mozilla/5.0 (Windows NT 10.0; Win64; x64) AppleWebKit/537.36 (KHTML, like Gecko) draw.io/22.1.2 Chrome/114.0.5735.289 Electron/25.9.4 Safari/537.36" etag="5nbluEcAV9bAeSgnkVS5" version="22.1.2" type="device">
  <diagram id="C5RBs43oDa-KdzZeNtuy" name="Page-1">
    <mxGraphModel dx="1036" dy="606" grid="1" gridSize="10" guides="1" tooltips="1" connect="1" arrows="1" fold="1" page="1" pageScale="1" pageWidth="827" pageHeight="1169" math="0" shadow="0">
      <root>
        <mxCell id="WIyWlLk6GJQsqaUBKTNV-0" />
        <mxCell id="WIyWlLk6GJQsqaUBKTNV-1" parent="WIyWlLk6GJQsqaUBKTNV-0" />
        <mxCell id="1BvxMqMM4gTDhrarN7Od-10" style="edgeStyle=orthogonalEdgeStyle;rounded=0;orthogonalLoop=1;jettySize=auto;html=1;exitX=0.5;exitY=1;exitDx=0;exitDy=0;entryX=0.5;entryY=0;entryDx=0;entryDy=0;" edge="1" parent="WIyWlLk6GJQsqaUBKTNV-1" source="1BvxMqMM4gTDhrarN7Od-0" target="1BvxMqMM4gTDhrarN7Od-9">
          <mxGeometry relative="1" as="geometry" />
        </mxCell>
        <mxCell id="1BvxMqMM4gTDhrarN7Od-0" value="start" style="ellipse;whiteSpace=wrap;html=1;" vertex="1" parent="WIyWlLk6GJQsqaUBKTNV-1">
          <mxGeometry x="354" y="30" width="120" height="80" as="geometry" />
        </mxCell>
        <mxCell id="1BvxMqMM4gTDhrarN7Od-3" style="edgeStyle=orthogonalEdgeStyle;rounded=0;orthogonalLoop=1;jettySize=auto;html=1;exitX=0.5;exitY=1;exitDx=0;exitDy=0;" edge="1" parent="WIyWlLk6GJQsqaUBKTNV-1" source="1BvxMqMM4gTDhrarN7Od-1" target="1BvxMqMM4gTDhrarN7Od-2">
          <mxGeometry relative="1" as="geometry" />
        </mxCell>
        <mxCell id="1BvxMqMM4gTDhrarN7Od-1" value="countLenStr(char *str)" style="rounded=0;whiteSpace=wrap;html=1;" vertex="1" parent="WIyWlLk6GJQsqaUBKTNV-1">
          <mxGeometry x="720" y="50" width="120" height="60" as="geometry" />
        </mxCell>
        <mxCell id="1BvxMqMM4gTDhrarN7Od-5" style="edgeStyle=orthogonalEdgeStyle;rounded=0;orthogonalLoop=1;jettySize=auto;html=1;exitX=0.5;exitY=1;exitDx=0;exitDy=0;entryX=0.5;entryY=0;entryDx=0;entryDy=0;" edge="1" parent="WIyWlLk6GJQsqaUBKTNV-1" source="1BvxMqMM4gTDhrarN7Od-2">
          <mxGeometry relative="1" as="geometry">
            <mxPoint x="780" y="240" as="targetPoint" />
          </mxGeometry>
        </mxCell>
        <mxCell id="1BvxMqMM4gTDhrarN7Od-2" value="count = 0&lt;br&gt;" style="rounded=0;whiteSpace=wrap;html=1;" vertex="1" parent="WIyWlLk6GJQsqaUBKTNV-1">
          <mxGeometry x="720" y="140" width="120" height="60" as="geometry" />
        </mxCell>
        <mxCell id="1BvxMqMM4gTDhrarN7Od-42" style="edgeStyle=orthogonalEdgeStyle;rounded=0;orthogonalLoop=1;jettySize=auto;html=1;exitX=0.5;exitY=1;exitDx=0;exitDy=0;entryX=0.5;entryY=0;entryDx=0;entryDy=0;" edge="1" parent="WIyWlLk6GJQsqaUBKTNV-1" source="1BvxMqMM4gTDhrarN7Od-7" target="1BvxMqMM4gTDhrarN7Od-41">
          <mxGeometry relative="1" as="geometry" />
        </mxCell>
        <mxCell id="1BvxMqMM4gTDhrarN7Od-44" style="edgeStyle=orthogonalEdgeStyle;rounded=0;orthogonalLoop=1;jettySize=auto;html=1;exitX=1;exitY=0.5;exitDx=0;exitDy=0;" edge="1" parent="WIyWlLk6GJQsqaUBKTNV-1" source="1BvxMqMM4gTDhrarN7Od-7">
          <mxGeometry relative="1" as="geometry">
            <mxPoint x="990" y="280" as="targetPoint" />
          </mxGeometry>
        </mxCell>
        <mxCell id="1BvxMqMM4gTDhrarN7Od-7" value="*str != &#39;\0&#39;?" style="rhombus;whiteSpace=wrap;html=1;" vertex="1" parent="WIyWlLk6GJQsqaUBKTNV-1">
          <mxGeometry x="740" y="240" width="80" height="80" as="geometry" />
        </mxCell>
        <mxCell id="1BvxMqMM4gTDhrarN7Od-12" style="edgeStyle=orthogonalEdgeStyle;rounded=0;orthogonalLoop=1;jettySize=auto;html=1;exitX=0.5;exitY=1;exitDx=0;exitDy=0;entryX=0.5;entryY=0;entryDx=0;entryDy=0;" edge="1" parent="WIyWlLk6GJQsqaUBKTNV-1" source="1BvxMqMM4gTDhrarN7Od-9" target="1BvxMqMM4gTDhrarN7Od-11">
          <mxGeometry relative="1" as="geometry" />
        </mxCell>
        <mxCell id="1BvxMqMM4gTDhrarN7Od-9" value="str1[100]&lt;br&gt;str2[100]" style="rounded=0;whiteSpace=wrap;html=1;" vertex="1" parent="WIyWlLk6GJQsqaUBKTNV-1">
          <mxGeometry x="354" y="140" width="120" height="60" as="geometry" />
        </mxCell>
        <mxCell id="1BvxMqMM4gTDhrarN7Od-14" style="edgeStyle=orthogonalEdgeStyle;rounded=0;orthogonalLoop=1;jettySize=auto;html=1;exitX=0.5;exitY=1;exitDx=0;exitDy=0;entryX=0.5;entryY=0;entryDx=0;entryDy=0;" edge="1" parent="WIyWlLk6GJQsqaUBKTNV-1" source="1BvxMqMM4gTDhrarN7Od-11" target="1BvxMqMM4gTDhrarN7Od-13">
          <mxGeometry relative="1" as="geometry" />
        </mxCell>
        <mxCell id="1BvxMqMM4gTDhrarN7Od-11" value="str1,str2" style="shape=parallelogram;perimeter=parallelogramPerimeter;whiteSpace=wrap;html=1;fixedSize=1;" vertex="1" parent="WIyWlLk6GJQsqaUBKTNV-1">
          <mxGeometry x="354" y="250" width="120" height="60" as="geometry" />
        </mxCell>
        <mxCell id="1BvxMqMM4gTDhrarN7Od-13" value="len = countLenStr(&amp;amp;str1)" style="rounded=0;whiteSpace=wrap;html=1;" vertex="1" parent="WIyWlLk6GJQsqaUBKTNV-1">
          <mxGeometry x="354" y="350" width="120" height="60" as="geometry" />
        </mxCell>
        <mxCell id="1BvxMqMM4gTDhrarN7Od-16" style="edgeStyle=orthogonalEdgeStyle;rounded=0;orthogonalLoop=1;jettySize=auto;html=1;exitX=0.5;exitY=1;exitDx=0;exitDy=0;entryX=0.647;entryY=-0.003;entryDx=0;entryDy=0;entryPerimeter=0;" edge="1" parent="WIyWlLk6GJQsqaUBKTNV-1" source="1BvxMqMM4gTDhrarN7Od-13">
          <mxGeometry relative="1" as="geometry">
            <mxPoint x="417.6400000000001" y="439.81999999999994" as="targetPoint" />
          </mxGeometry>
        </mxCell>
        <mxCell id="1BvxMqMM4gTDhrarN7Od-20" style="edgeStyle=orthogonalEdgeStyle;rounded=0;orthogonalLoop=1;jettySize=auto;html=1;exitX=0.5;exitY=1;exitDx=0;exitDy=0;entryX=0.5;entryY=0;entryDx=0;entryDy=0;" edge="1" parent="WIyWlLk6GJQsqaUBKTNV-1" source="1BvxMqMM4gTDhrarN7Od-18" target="1BvxMqMM4gTDhrarN7Od-19">
          <mxGeometry relative="1" as="geometry" />
        </mxCell>
        <mxCell id="1BvxMqMM4gTDhrarN7Od-18" value="len2 = countLenStr(&amp;amp;str2)" style="rounded=0;whiteSpace=wrap;html=1;" vertex="1" parent="WIyWlLk6GJQsqaUBKTNV-1">
          <mxGeometry x="354" y="440" width="120" height="60" as="geometry" />
        </mxCell>
        <mxCell id="1BvxMqMM4gTDhrarN7Od-22" style="edgeStyle=orthogonalEdgeStyle;rounded=0;orthogonalLoop=1;jettySize=auto;html=1;exitX=0.5;exitY=1;exitDx=0;exitDy=0;entryX=0.5;entryY=0;entryDx=0;entryDy=0;" edge="1" parent="WIyWlLk6GJQsqaUBKTNV-1" source="1BvxMqMM4gTDhrarN7Od-19" target="1BvxMqMM4gTDhrarN7Od-21">
          <mxGeometry relative="1" as="geometry" />
        </mxCell>
        <mxCell id="1BvxMqMM4gTDhrarN7Od-19" value="len, len2" style="shape=parallelogram;perimeter=parallelogramPerimeter;whiteSpace=wrap;html=1;fixedSize=1;" vertex="1" parent="WIyWlLk6GJQsqaUBKTNV-1">
          <mxGeometry x="354" y="540" width="120" height="60" as="geometry" />
        </mxCell>
        <mxCell id="1BvxMqMM4gTDhrarN7Od-24" style="edgeStyle=orthogonalEdgeStyle;rounded=0;orthogonalLoop=1;jettySize=auto;html=1;exitX=0.5;exitY=1;exitDx=0;exitDy=0;entryX=0.5;entryY=0;entryDx=0;entryDy=0;" edge="1" parent="WIyWlLk6GJQsqaUBKTNV-1" source="1BvxMqMM4gTDhrarN7Od-21" target="1BvxMqMM4gTDhrarN7Od-23">
          <mxGeometry relative="1" as="geometry" />
        </mxCell>
        <mxCell id="1BvxMqMM4gTDhrarN7Od-25" style="edgeStyle=orthogonalEdgeStyle;rounded=0;orthogonalLoop=1;jettySize=auto;html=1;exitX=1;exitY=0.5;exitDx=0;exitDy=0;" edge="1" parent="WIyWlLk6GJQsqaUBKTNV-1" source="1BvxMqMM4gTDhrarN7Od-21">
          <mxGeometry relative="1" as="geometry">
            <mxPoint x="600" y="680" as="targetPoint" />
          </mxGeometry>
        </mxCell>
        <mxCell id="1BvxMqMM4gTDhrarN7Od-21" value="len == len2?" style="rhombus;whiteSpace=wrap;html=1;" vertex="1" parent="WIyWlLk6GJQsqaUBKTNV-1">
          <mxGeometry x="374" y="640" width="80" height="80" as="geometry" />
        </mxCell>
        <mxCell id="1BvxMqMM4gTDhrarN7Od-23" value="bang nhau" style="shape=parallelogram;perimeter=parallelogramPerimeter;whiteSpace=wrap;html=1;fixedSize=1;" vertex="1" parent="WIyWlLk6GJQsqaUBKTNV-1">
          <mxGeometry x="354" y="750" width="120" height="60" as="geometry" />
        </mxCell>
        <mxCell id="1BvxMqMM4gTDhrarN7Od-29" style="edgeStyle=orthogonalEdgeStyle;rounded=0;orthogonalLoop=1;jettySize=auto;html=1;exitX=0.5;exitY=1;exitDx=0;exitDy=0;entryX=0.5;entryY=0;entryDx=0;entryDy=0;" edge="1" parent="WIyWlLk6GJQsqaUBKTNV-1" source="1BvxMqMM4gTDhrarN7Od-26" target="1BvxMqMM4gTDhrarN7Od-28">
          <mxGeometry relative="1" as="geometry" />
        </mxCell>
        <mxCell id="1BvxMqMM4gTDhrarN7Od-30" style="edgeStyle=orthogonalEdgeStyle;rounded=0;orthogonalLoop=1;jettySize=auto;html=1;exitX=1;exitY=0.5;exitDx=0;exitDy=0;entryX=0;entryY=0.5;entryDx=0;entryDy=0;" edge="1" parent="WIyWlLk6GJQsqaUBKTNV-1" source="1BvxMqMM4gTDhrarN7Od-26" target="1BvxMqMM4gTDhrarN7Od-27">
          <mxGeometry relative="1" as="geometry" />
        </mxCell>
        <mxCell id="1BvxMqMM4gTDhrarN7Od-26" value="len&amp;lt;len2?" style="rhombus;whiteSpace=wrap;html=1;" vertex="1" parent="WIyWlLk6GJQsqaUBKTNV-1">
          <mxGeometry x="600" y="640" width="80" height="80" as="geometry" />
        </mxCell>
        <mxCell id="1BvxMqMM4gTDhrarN7Od-32" style="edgeStyle=orthogonalEdgeStyle;rounded=0;orthogonalLoop=1;jettySize=auto;html=1;exitX=0.5;exitY=1;exitDx=0;exitDy=0;entryX=0.5;entryY=0;entryDx=0;entryDy=0;" edge="1" parent="WIyWlLk6GJQsqaUBKTNV-1" source="1BvxMqMM4gTDhrarN7Od-27" target="1BvxMqMM4gTDhrarN7Od-31">
          <mxGeometry relative="1" as="geometry" />
        </mxCell>
        <mxCell id="1BvxMqMM4gTDhrarN7Od-38" style="edgeStyle=orthogonalEdgeStyle;rounded=0;orthogonalLoop=1;jettySize=auto;html=1;exitX=1;exitY=0.5;exitDx=0;exitDy=0;" edge="1" parent="WIyWlLk6GJQsqaUBKTNV-1" source="1BvxMqMM4gTDhrarN7Od-27">
          <mxGeometry relative="1" as="geometry">
            <mxPoint x="1040" y="680" as="targetPoint" />
          </mxGeometry>
        </mxCell>
        <mxCell id="1BvxMqMM4gTDhrarN7Od-27" value="len2&amp;lt;len" style="rhombus;whiteSpace=wrap;html=1;" vertex="1" parent="WIyWlLk6GJQsqaUBKTNV-1">
          <mxGeometry x="810" y="640" width="80" height="80" as="geometry" />
        </mxCell>
        <mxCell id="1BvxMqMM4gTDhrarN7Od-28" value="len2 dai hon len" style="shape=parallelogram;perimeter=parallelogramPerimeter;whiteSpace=wrap;html=1;fixedSize=1;" vertex="1" parent="WIyWlLk6GJQsqaUBKTNV-1">
          <mxGeometry x="580" y="750" width="120" height="60" as="geometry" />
        </mxCell>
        <mxCell id="1BvxMqMM4gTDhrarN7Od-31" value="len2 ngan hon len" style="shape=parallelogram;perimeter=parallelogramPerimeter;whiteSpace=wrap;html=1;fixedSize=1;" vertex="1" parent="WIyWlLk6GJQsqaUBKTNV-1">
          <mxGeometry x="790" y="760" width="120" height="60" as="geometry" />
        </mxCell>
        <mxCell id="1BvxMqMM4gTDhrarN7Od-33" value="true" style="text;html=1;align=center;verticalAlign=middle;resizable=0;points=[];autosize=1;strokeColor=none;fillColor=none;" vertex="1" parent="WIyWlLk6GJQsqaUBKTNV-1">
          <mxGeometry x="410" y="718" width="40" height="30" as="geometry" />
        </mxCell>
        <mxCell id="1BvxMqMM4gTDhrarN7Od-34" value="true" style="text;html=1;align=center;verticalAlign=middle;resizable=0;points=[];autosize=1;strokeColor=none;fillColor=none;" vertex="1" parent="WIyWlLk6GJQsqaUBKTNV-1">
          <mxGeometry x="640" y="718" width="40" height="30" as="geometry" />
        </mxCell>
        <mxCell id="1BvxMqMM4gTDhrarN7Od-35" value="true" style="text;html=1;align=center;verticalAlign=middle;resizable=0;points=[];autosize=1;strokeColor=none;fillColor=none;" vertex="1" parent="WIyWlLk6GJQsqaUBKTNV-1">
          <mxGeometry x="840" y="728" width="40" height="30" as="geometry" />
        </mxCell>
        <mxCell id="1BvxMqMM4gTDhrarN7Od-36" value="false" style="text;html=1;align=center;verticalAlign=middle;resizable=0;points=[];autosize=1;strokeColor=none;fillColor=none;" vertex="1" parent="WIyWlLk6GJQsqaUBKTNV-1">
          <mxGeometry x="475" y="648" width="50" height="30" as="geometry" />
        </mxCell>
        <mxCell id="1BvxMqMM4gTDhrarN7Od-37" value="false" style="text;html=1;align=center;verticalAlign=middle;resizable=0;points=[];autosize=1;strokeColor=none;fillColor=none;" vertex="1" parent="WIyWlLk6GJQsqaUBKTNV-1">
          <mxGeometry x="705" y="648" width="50" height="30" as="geometry" />
        </mxCell>
        <mxCell id="1BvxMqMM4gTDhrarN7Od-39" value="end" style="ellipse;whiteSpace=wrap;html=1;" vertex="1" parent="WIyWlLk6GJQsqaUBKTNV-1">
          <mxGeometry x="1040" y="640" width="120" height="80" as="geometry" />
        </mxCell>
        <mxCell id="1BvxMqMM4gTDhrarN7Od-40" value="false" style="text;html=1;align=center;verticalAlign=middle;resizable=0;points=[];autosize=1;strokeColor=none;fillColor=none;" vertex="1" parent="WIyWlLk6GJQsqaUBKTNV-1">
          <mxGeometry x="915" y="648" width="50" height="30" as="geometry" />
        </mxCell>
        <mxCell id="1BvxMqMM4gTDhrarN7Od-43" style="edgeStyle=orthogonalEdgeStyle;rounded=0;orthogonalLoop=1;jettySize=auto;html=1;exitX=0;exitY=0.5;exitDx=0;exitDy=0;entryX=0;entryY=0.5;entryDx=0;entryDy=0;" edge="1" parent="WIyWlLk6GJQsqaUBKTNV-1" source="1BvxMqMM4gTDhrarN7Od-41" target="1BvxMqMM4gTDhrarN7Od-7">
          <mxGeometry relative="1" as="geometry" />
        </mxCell>
        <mxCell id="1BvxMqMM4gTDhrarN7Od-41" value="count++&lt;br&gt;*str++" style="rounded=0;whiteSpace=wrap;html=1;" vertex="1" parent="WIyWlLk6GJQsqaUBKTNV-1">
          <mxGeometry x="720" y="350" width="120" height="60" as="geometry" />
        </mxCell>
        <mxCell id="1BvxMqMM4gTDhrarN7Od-45" value="true" style="text;html=1;align=center;verticalAlign=middle;resizable=0;points=[];autosize=1;strokeColor=none;fillColor=none;" vertex="1" parent="WIyWlLk6GJQsqaUBKTNV-1">
          <mxGeometry x="780" y="318" width="40" height="30" as="geometry" />
        </mxCell>
        <mxCell id="1BvxMqMM4gTDhrarN7Od-46" value="false" style="text;html=1;align=center;verticalAlign=middle;resizable=0;points=[];autosize=1;strokeColor=none;fillColor=none;" vertex="1" parent="WIyWlLk6GJQsqaUBKTNV-1">
          <mxGeometry x="855" y="248" width="50" height="30" as="geometry" />
        </mxCell>
        <mxCell id="1BvxMqMM4gTDhrarN7Od-47" value="return count" style="rounded=0;whiteSpace=wrap;html=1;" vertex="1" parent="WIyWlLk6GJQsqaUBKTNV-1">
          <mxGeometry x="990" y="250" width="120" height="60" as="geometry" />
        </mxCell>
      </root>
    </mxGraphModel>
  </diagram>
</mxfile>
